<?xml version="1.0" encoding="utf-8"?>
<!-- Generator: Adobe Illustrator 26.0.3, SVG Export Plug-In . SVG Version: 6.00 Build 0)  -->
<svg version="1.1" id="Шар_1" xmlns="http://www.w3.org/2000/svg" xmlns:xlink="http://www.w3.org/1999/xlink" x="0px" y="0px"
	 viewBox="0 0 6571.4 1412.3" style="enable-background:new 0 0 6571.4 1412.3;" xml:space="preserve">
<style type="text/css">
	.st0{fill:#0E3C61;}
	.st1{fill:#70B4E2;}
</style>
<g>
	<g>
		<path class="st0" d="M654.2,783.9h158.3V959c-35.4,17.6-78.4,26.5-127.9,26.5c-76.3,0-137.6-24.2-182.1-71.9
			c-44.7-48-67.4-116.6-67.4-204c0-84.8,24.7-153.9,73.5-205.3c48.5-51.2,111.3-77.2,186.4-77.2c77.7,0,145.4,17.8,201.3,53
			l21.3,13.4V357.7l-8.1-3.7c-56.2-25.9-125.6-39-206.1-39c-114.9,0-210.5,38-284.2,113c-73.6,74.9-111,171.7-111,287.8
			c0,114.7,33.9,208,100.7,277.1c67,69.3,156.2,104.4,265.2,104.4c93.7,0,179.1-21.5,253.8-64l7-4V672.7H654.2V783.9z"/>
		<path class="st0" d="M1282.6,523.8c-72.6,0-134.2,27.7-183.1,82.4c-48.5,54.2-73,123.8-73,206.7c0,87.9,22.5,157.9,66.9,208.1
			c44.8,50.6,107.7,76.3,186.9,76.3c78.3,0,142.3-17.2,190.4-51.1l5.9-4.2V924.1l-22.4,17.2c-46,35.3-97.2,53.2-152.2,53.2
			c-48.3,0-84.6-13.5-111-41.2c-23.8-25-37.6-60.4-41.1-105.3h364v-60.6c0-81.9-20.5-146.9-60.9-193.2
			C1411.9,547.5,1354.6,523.8,1282.6,523.8z M1195.7,662.9c24.4-24.8,52.3-36.8,85.5-36.8c35.9,0,62.8,11,82.2,33.7
			c17.5,20.5,27.5,49.6,29.7,86.4H1152C1159.7,712.6,1174.4,684.6,1195.7,662.9z"/>
		<path class="st0" d="M1888.1,523.8c-65.6,0-118.9,24-159,71.5V536h-120.2v549h120.2V773.8c0-43.1,11.7-77.6,35.7-105.4
			c23.5-27.2,52.7-40.4,89.4-40.4c69.6,0,103.4,48,103.4,146.8V1085h119.7V752.6c0-73-16.1-129.8-47.9-168.8
			C1996.9,544,1949.4,523.8,1888.1,523.8z"/>
		<path class="st0" d="M2414.3,327.3L2125.7,1085h134.2l70.2-199.8h284.4l74.5,199.8h134l-288.6-757.8H2414.3z M2471.9,491.1
			L2575,774.9h-205.3L2471.9,491.1z"/>
		<rect x="2894.3" y="327.3" class="st0" width="122.1" height="757.8"/>
		<path class="st0" d="M3877.5,387.7L3877.5,387.7c-45.9-40.1-110.8-60.5-192.7-60.5h-221.3V1085h122.1V812.2h80.6
			c79.5,2.6,146.9-19.8,200.2-66.3c53.8-47,81.1-109.1,81.1-184.6C3947.6,486.7,3924,428.3,3877.5,387.7z M3585.7,438h82.2
			c102.9,0,152.9,41.5,152.9,127c0,44.6-13.1,77.6-40,100.9c-27.1,23.5-68.1,35.5-121.9,35.5h-73.2V438z"/>
		<path class="st0" d="M4287,527.1c-53.4,0-95.1,23.6-124.6,70.4V536h-120.2v549h120.2V807.2c0-51.5,10.9-93.3,32.4-124.2
			c20.7-29.7,45.9-44.2,77.2-44.2c23.9,0,42.6,4.7,55.5,13.9l22,15.7V538.8l-8.6-3.6C4327.8,529.7,4310.2,527.1,4287,527.1z"/>
		<path class="st0" d="M5130.3,376.3l-119.7,38.1V536H4921v104.2h89.5v287.2c0,110.5,53.2,169,153.9,169c36.4,0,66.1-6.1,88.2-18.2
			l7.2-4v-113l-22.3,16.9c-13,9.8-28,14.6-45.8,14.6c-22.4,0-38.2-5.7-47-16.8c-9.6-12.2-14.4-34-14.4-64.9V640.2h129.6V536h-129.6
			V376.3z"/>
		<path class="st0" d="M6229,833.8L6229,833.8c-22.2-25.2-62.5-48.5-123.1-71.1c-55-21.8-76.5-35.1-84.8-42.3
			c-10.3-8.9-15.2-21.4-15.2-38c0-16.6,6.9-29.1,21.8-39.5c16.1-11.2,37.7-16.8,64.1-16.8c46.4,0,88.4,11.9,124.9,35.5l21.5,13.9
			v-124l-8.7-3.5c-39.5-16-82.8-24.1-128.7-24.1c-59.9,0-111.2,14.9-152.5,44.3c-42.8,30.4-64.5,71.6-64.5,122.3
			c0,35.3,9.7,66,28.7,91.1c19,25.1,57.8,49.1,118.5,73.5l0.3,0.1c46.4,17.3,77.2,32.1,91.6,44.1c12.5,10.4,18.5,23.1,18.5,39
			c0,24.4-9.7,56.8-94,56.8c-50.5,0-98.3-16.1-142.2-47.8l-22.1-16v130l7.6,3.9c42,21.3,91.7,32.1,147.7,32.1
			c64.8,0,118.7-14.7,160-43.8c42.9-30.1,64.6-71.9,64.6-124.2C6263.1,891.7,6251.6,859.6,6229,833.8z"/>
	</g>
	<g>
		<path class="st1" d="M5820.6,748c-27.7-92.4-70.8-252.1-179.3-231.1c0,0-242.2,38.8-282.8,66.6c-40.7,27.7-88.7,88.7-59.2,197.8
			c29.6,109.1,81.3,192.3,99.8,225.5c18.5,33.3,98,85,181.2,55.5c83.2-29.6,201.5-140.5,221.8-155.3
			C5822.4,892.2,5848.3,840.5,5820.6,748z M5739.6,886.9c-1.7,17-12.6,31.7-28.4,38.2c-42.8,17.7-125.4,29.4-179,39.8
			c-69.6,13.5-95.4-18-99.9-40.4s0-253.6,0-253.6c0.3-15.8,11.7-43.5,43.1-53.7c31.4-10.1,149.7,6.4,209.2,13.1
			c59.5,6.7,59.7,40.5,59.7,65.2C5744.3,717.9,5746.5,820.1,5739.6,886.9z"/>
		<path class="st1" d="M4919,748c-27.7-92.4-70.8-252.1-179.3-231.1c0,0-242.2,38.8-282.8,66.6c-40.7,27.7-88.7,88.7-59.2,197.8
			c29.6,109.1,81.3,192.3,99.8,225.5c18.5,33.3,98,85,181.2,55.5c83.2-29.6,201.5-140.5,221.8-155.3
			C4920.9,892.2,4946.8,840.5,4919,748z M4838.1,886.9c-1.7,17-12.6,31.7-28.4,38.2c-42.8,17.7-125.4,29.4-179,39.8
			c-69.6,13.5-95.4-18-99.9-40.4c-4.5-22.4,0-253.6,0-253.6c0.3-15.8,11.7-43.5,43.1-53.7c31.4-10.1,149.7,6.4,209.2,13.1
			c59.5,6.7,59.7,40.5,59.7,65.2C4842.8,717.9,4845,820.1,4838.1,886.9z"/>
	</g>
</g>
</svg>
