<?xml version="1.0" encoding="utf-8"?>
<!-- Generator: Adobe Illustrator 26.0.3, SVG Export Plug-In . SVG Version: 6.00 Build 0)  -->
<svg version="1.1" id="Шар_1" xmlns="http://www.w3.org/2000/svg" xmlns:xlink="http://www.w3.org/1999/xlink" x="0px" y="0px"
	 viewBox="0 0 4000 4000" style="enable-background:new 0 0 4000 4000;" xml:space="preserve">
<style type="text/css">
	.st0{fill:#70B4E2;}
</style>
<path class="st0" d="M3694.6,1705.5C3513.3,1101.1,3232,57.2,2522.3,194.6c0,0-1583.4,253.9-1849.3,435.2
	C407,811.1,92.8,1209.9,286.1,1923.1c193.4,713,531.8,1257,652.7,1474.5c120.9,217.6,640.6,556,1184.5,362.7
	c543.9-193.4,1317.5-918.6,1450.4-1015.3C3706.8,2648.3,3875.9,2309.8,3694.6,1705.5z M3165.5,2613.7
	c-11.3,111.1-82.5,207.3-185.7,250c-279.7,115.6-819.9,192.4-1170.5,260.3c-455,88-623.7-117.4-653.1-264.2
	c-29.4-146.8,0-1658.3,0-1658.3c1.9-103,76.6-284.7,282.1-350.8c205.4-66.1,978.9,41.9,1367.8,85.9
	c388.9,44,390.1,264.9,390.1,426.4C3196,1508.3,3210.3,2176.8,3165.5,2613.7z"/>
</svg>
